<?xml version="1.0" encoding="UTF-8" standalone="no"?>
<svg
   version="1.0"
   width="264pt"
   height="264pt"
   viewBox="28 22 218 218"
   preserveAspectRatio="xMidYMid"
   id="svg48"
   sodipodi:docname="vikings-logo.svg"
   inkscape:version="1.2.2 (732a01da63, 2022-12-09)"
   xmlns:inkscape="http://www.inkscape.org/namespaces/inkscape"
   xmlns:sodipodi="http://sodipodi.sourceforge.net/DTD/sodipodi-0.dtd"
   xmlns="http://www.w3.org/2000/svg"
   xmlns:svg="http://www.w3.org/2000/svg">
  <defs
     id="defs52" />
  <sodipodi:namedview
     id="namedview50"
     pagecolor="#ffffff"
     bordercolor="#000000"
     borderopacity="0.25"
     inkscape:showpageshadow="2"
     inkscape:pageopacity="0.0"
     inkscape:pagecheckerboard="0"
     inkscape:deskcolor="#d1d1d1"
     inkscape:document-units="pt"
     showgrid="false"
     inkscape:zoom="1.8607955"
     inkscape:cx="133.00763"
     inkscape:cy="173.31298"
     inkscape:window-width="1920"
     inkscape:window-height="1018"
     inkscape:window-x="1273"
     inkscape:window-y="-6"
     inkscape:window-maximized="1"
     inkscape:current-layer="svg48" />
  <g
     transform="matrix(0.1,0,0,-0.1,0,264)"
     fill="#000000"
     stroke="none"
     id="g46">
    <path
       d="m 1174,2270 c 8,-141 37,-243 79,-278 12,-10 20,-2 46,47 l 31,59 -22,27 c -11,15 -48,77 -80,138 l -59,112 z"
       id="path28" />
    <path
       d="m 949,2281 c -104,-86 -143,-336 -74,-478 41,-83 131,-169 235,-223 71,-36 96,-44 157,-48 120,-8 173,29 173,119 0,74 -39,107 -166,143 -167,48 -197,60 -232,95 -87,87 -102,213 -46,399 9,30 -4,28 -47,-7 z"
       id="path30" />
    <path
       d="m 1355,2077 c -19,-59 -65,-139 -102,-179 -31,-33 -25,-43 28,-52 63,-10 119,-43 175,-103 l 52,-54 103,25 c 57,14 159,35 226,48 83,15 123,27 123,36 0,29 -58,129 -102,178 -75,81 -160,112 -337,119 -54,2 -101,10 -119,19 l -30,15 z"
       id="path32" />
    <path
       d="m 2085,1816 c -82,-58 -154,-86 -236,-93 l -70,-6 -19,-42 c -92,-202 -145,-361 -137,-414 6,-48 0,-56 -28,-37 -21,14 -24,12 -53,-23 -38,-47 -104,-81 -158,-81 -29,0 -47,-6 -62,-23 -21,-23 -21,-24 -5,-65 18,-48 12,-63 -15,-39 -17,16 -20,16 -39,-6 -11,-12 -29,-36 -41,-53 l -21,-31 75,-74 c 75,-75 89,-99 55,-99 -16,0 -21,-12 -30,-66 l -12,-66 36,-39 c 24,-27 35,-49 35,-70 0,-27 -3,-30 -22,-26 -20,5 -27,-3 -55,-61 -17,-37 -41,-82 -53,-100 l -22,-32 h 24 c 42,0 122,28 171,61 48,31 116,118 156,196 27,54 27,56 -9,48 -16,-4 -30,-3 -30,1 0,5 25,34 56,65 48,48 59,67 75,125 19,67 25,144 13,144 -4,0 -13,-8 -20,-17 -7,-10 -15,-15 -19,-12 -6,6 8,106 22,154 4,16 3,18 -8,8 -34,-33 -40,5 -9,55 23,38 48,51 61,31 5,-8 9,-65 9,-126 0,-62 2,-113 4,-113 2,0 42,17 88,39 l 83,38 28,75 c 31,86 34,141 12,254 -8,43 -12,80 -9,83 9,9 33,-29 46,-71 6,-21 14,-38 18,-38 16,0 80,70 80,88 0,26 19,33 46,16 18,-12 27,-10 77,22 l 56,35 -40,52 c -22,28 -52,73 -65,99 -24,48 -25,48 -52,34 -15,-7 -41,-17 -58,-20 -28,-6 -36,-18 -79,-111 -26,-58 -52,-105 -57,-105 -12,0 -10,9 12,73 24,68 25,87 5,87 -8,0 -15,7 -15,15 0,8 5,15 10,15 22,0 140,83 180,126 43,47 84,124 78,148 -2,10 -22,1 -63,-28 z"
       id="path34" />
    <path
       d="m 1605,1679 c -22,-5 -53,-14 -68,-21 -58,-23 -261,-293 -385,-513 -53,-93 -98,-192 -91,-200 3,-2 27,-6 54,-10 l 50,-6 75,110 c 72,105 77,109 118,115 79,11 148,60 186,135 12,23 136,385 136,397 0,6 -29,3 -75,-7 z"
       id="path36" />
    <path
       d="M 1059,1485 C 835,1372 565,1163 456,1021 411,962 386,921 392,915 c 2,-3 28,2 58,10 30,7 98,19 151,25 l 96,12 54,71 c 61,81 317,339 409,413 l 60,49 -27,12 c -42,18 -62,15 -134,-22 z"
       id="path38" />
    <path
       d="M 1175,1411 C 1040,1290 790,1015 790,988 c 0,-4 45,-8 99,-8 h 99 l 30,64 c 38,82 132,221 237,352 l 84,104 h -32 c -27,0 -50,-16 -132,-89 z"
       id="path40" />
    <path
       d="m 2155,1335 c -16,-8 -51,-23 -77,-34 -52,-22 -81,-59 -99,-126 -37,-143 -107,-306 -187,-439 -24,-38 -40,-71 -38,-74 12,-11 98,53 151,110 50,56 108,156 154,267 8,19 40,54 78,83 76,60 94,90 96,166 2,54 1,57 -23,60 -14,1 -38,-5 -55,-13 z"
       id="path42" />
    <path
       d="m 2215,1128 c -16,-6 -39,-18 -49,-27 -22,-18 -76,-100 -76,-114 0,-14 76,1 121,23 45,24 59,46 59,94 0,39 -6,41 -55,24 z"
       id="path44" />
  </g>
  <circle
     style="fill:#ffcc00;fill-opacity:1;stroke-width:0.619318"
     id="path13061"
     cx="137"
     cy="131"
     r="109" />
  <g
     id="g13228"
     transform="matrix(0.96897688,0,0,0.96897688,6.7937882,3.9787927)">
    <path
       style="fill:#0000ff;stroke-width:0.841099"
       d="m 53.358605,227.76798 c 1.291178,-3.36476 10.66844,-15.28064 17.319023,-22.00765 17.847776,-18.05286 45.995742,-38.50791 69.727172,-50.67053 4.55913,-2.33661 9.76281,-4.44601 11.56374,-4.68756 3.51433,-0.47137 10.4207,1.78719 9.04059,2.95651 -0.42886,0.36336 -3.23995,2.71271 -6.24688,5.22079 -16.39326,13.6736 -47.4118,45.24535 -57.134247,58.15323 -2.326904,3.08929 -4.593182,5.84089 -5.03617,6.11467 -0.442989,0.27379 -6.412214,1.27365 -13.264942,2.22192 -6.85273,0.94827 -15.039091,2.26548 -18.191915,2.92714 -7.520567,1.57829 -8.459125,1.55071 -7.776371,-0.22852 z"
       id="path3151"
       transform="scale(0.75)" />
    <path
       style="fill:#0057ff;fill-opacity:1;stroke-width:0.841099"
       d="m 165.27599,147.07848 c -12.94066,-1.98885 -33.24775,-14.84275 -42.14222,-26.67501 -8.55835,-11.38513 -10.82319,-19.19838 -10.15475,-35.031905 0.70268,-16.644295 4.78709,-27.989226 12.94527,-35.956989 4.5388,-4.432852 7.70364,-5.848777 6.58002,-2.943847 -1.56585,4.048252 -3.84439,15.700797 -4.31463,22.065227 -1.20419,16.297992 4.97358,30.006032 16.19859,35.943544 2.69876,1.42752 11.28619,4.54178 19.08319,6.92059 16.21078,4.94579 20.67896,6.85344 24.12583,10.30031 6.62481,6.62481 4.62447,19.62755 -3.64303,23.68073 -3.18835,1.56311 -13.47154,2.49757 -18.67827,1.69735 z"
       id="path3153"
       transform="scale(0.75)" />
    <path
       style="fill:#0057ff;fill-opacity:1;stroke-width:0.841099"
       d="m 53.830346,227.94874 c 0,-1.10497 7.222286,-10.71711 12.334692,-16.41625 17.520663,-19.53142 47.505952,-42.02981 74.298522,-55.74724 8.90652,-4.56001 10.02473,-4.92421 14.11801,-4.59817 6.76788,0.53907 6.82194,1.41764 0.40274,6.54445 -8.69924,6.94781 -46.9386,45.50696 -55.236455,55.69839 -4.113183,5.05181 -8.167947,9.22316 -9.187277,9.45144 -1.705733,0.38199 -25.21321,4.06669 -33.15556,5.19699 -1.966069,0.2798 -3.574672,0.22147 -3.574672,-0.12961 z"
       id="path3500"
       transform="scale(0.75)" />
    <path
       style="fill:#0057ff;fill-opacity:1;stroke-width:0.841099"
       d="m 195.28827,120.2084 c -7.74548,-8.16902 -14.57969,-12.50768 -22.46551,-14.26211 -7.94726,-1.76809 -8.79554,-2.73409 -5.62979,-6.410969 5.82846,-6.769474 11.47543,-16.894299 14.11535,-25.30832 0.83457,-2.659976 1.78056,-4.83632 2.10218,-4.83632 0.32163,0 1.94309,0.567537 3.60324,1.261192 1.67148,0.698391 9.46242,1.827961 17.45886,2.531274 7.94222,0.698545 16.87362,1.834384 19.84756,2.524086 14.47427,3.356807 25.36686,12.926253 33.83852,29.728087 1.48212,2.93949 2.50109,5.84925 2.26436,6.46615 -0.55766,1.45324 -3.39203,2.2179 -23.65363,6.38124 -9.25209,1.90112 -21.0635,4.49037 -26.24758,5.75391 l -9.4256,2.29733 z"
       id="path3502"
       transform="scale(0.75)" />
    <path
       style="fill:#0057ff;fill-opacity:1;stroke-width:0.841099"
       d="m 165.45894,83.5236 c -4.55116,-6.09827 -7.53644,-18.881015 -8.6042,-36.842596 l -0.52501,-8.831542 6.89867,12.616488 c 3.79427,6.939068 8.36563,14.777379 10.15857,17.418467 l 3.25989,4.801981 -3.58269,6.486642 c -1.97048,3.567654 -4.02127,6.631092 -4.55731,6.807642 -0.53604,0.176548 -1.90761,-0.929138 -3.04792,-2.457082 z"
       id="path3504"
       transform="scale(0.75)" />
    <path
       style="fill:#0057ff;fill-opacity:1;stroke-width:0.841099"
       d="m 106.96057,220.05236 c -0.85469,-0.5418 -0.17254,-1.88623 2.8741,-5.66454 16.47211,-20.42794 47.70417,-52.12532 58.51257,-59.38432 2.99186,-2.00936 8.28358,-3.23448 8.28358,-1.91778 0,0.23443 -3.69409,5.06023 -8.20909,10.72402 -17.08286,21.42938 -28.74049,38.87315 -34.26946,51.27876 l -2.52025,5.65481 -11.77539,0.01 c -6.47646,0.005 -12.27969,-0.30995 -12.89606,-0.70068 z"
       id="path3506"
       transform="scale(0.75)" />
    <path
       style="fill:#0057ff;fill-opacity:1;stroke-width:0.841099"
       d="m 146.89986,226.63526 c -2.24259,-0.37631 -4.28433,-0.8911 -4.5372,-1.14397 -1.37239,-1.37239 8.52976,-21.16947 19.18035,-38.34673 13.06329,-21.06845 29.37267,-42.90741 38.23348,-51.19627 5.50133,-5.14622 10.2522,-7.13308 19.74432,-8.25728 l 4.2474,-0.50305 -8.10843,23.88033 c -4.45963,13.13419 -9.01455,25.81974 -10.12205,28.19012 -4.32244,9.25139 -12.70191,15.6963 -23.71161,18.23731 -6.76271,1.56082 -8.05813,2.82274 -18.37323,17.89821 -9.06244,13.24469 -8.1811,12.64616 -16.55303,11.24133 z"
       id="path3508"
       transform="scale(0.75)" />
    <path
       style="fill:#0057ff;fill-opacity:1;stroke-width:0.841099"
       d="m 162.33214,315.15986 c 0,-0.37009 0.39577,-1.06865 0.87949,-1.55237 0.48371,-0.48372 3.42438,-5.76372 6.5348,-11.73333 5.60278,-10.75302 5.68446,-10.85627 8.79315,-11.1149 2.97366,-0.24739 3.13784,-0.4146 3.13784,-3.19589 0,-3.79105 -1.88445,-7.46599 -6.03771,-11.77434 l -3.33148,-3.45589 0.9498,-5.37565 c 1.71742,-9.72018 2.40329,-11.54827 4.44145,-11.83793 1.18423,-0.16832 1.97221,-0.94844 2.13849,-2.1172 0.19841,-1.3946 -2.12052,-4.30555 -9.40955,-11.81175 l -9.67284,-9.96105 2.19957,-2.90749 c 1.20976,-1.59912 3.4863,-4.52097 5.05898,-6.49302 l 2.8594,-3.58551 2.37766,1.69304 c 4.63417,3.29982 5.29422,1.71215 2.57454,-6.19274 l -1.6462,-4.78475 2.27722,-2.54865 c 1.96921,-2.20393 3.13009,-2.65573 8.58297,-3.34042 8.30993,-1.04343 14.10205,-3.98376 20.20009,-10.25442 l 4.94344,-5.08339 2.21647,1.45229 c 3.64994,2.39154 4.32193,1.38718 4.83406,-7.22499 0.6455,-10.85507 4.76104,-23.17114 17.41303,-52.10982 l 2.80174,-6.40837 6.80978,-0.56512 c 12.68585,-1.05275 21.00852,-4.03852 32.94482,-11.81899 7.40274,-4.82536 8.77103,-5.38809 8.7699,-3.60679 -0.002,2.08281 -4.87134,11.2341 -8.22649,15.45843 -3.77397,4.75166 -15.78421,14.16072 -22.68124,17.76893 -4.75441,2.48729 -6.04306,5.4728 -2.73557,6.33773 2.24173,0.58623 2.1361,1.95029 -0.88029,11.3668 -2.66764,8.32785 -2.76613,11.39616 -0.30009,9.34953 0.72765,-0.6039 3.88705,-6.4226 7.0209,-12.93044 3.13384,-6.50785 6.37546,-12.39616 7.2036,-13.08514 1.26193,-1.04989 8.10976,-3.96624 13.06919,-5.56589 0.92498,-0.29835 2.22652,1.26901 4.50419,5.42411 1.76181,3.21405 5.4338,8.82086 8.15997,12.45959 2.72617,3.63873 4.95074,6.80512 4.94349,7.03642 -0.0155,0.49303 -10.50415,6.86729 -12.76717,7.75896 -0.90031,0.35473 -2.7394,0.0411 -4.39865,-0.75015 -3.60957,-1.72128 -5.2133,-1.10276 -5.9604,2.29878 -0.70185,3.19547 -9.27367,12.47529 -10.3983,11.25715 -0.40566,-0.4394 -1.37514,-2.76459 -2.1544,-5.16709 -1.43927,-4.43738 -4.1629,-8.66886 -5.57979,-8.66886 -1.1423,0 -0.95193,5.31942 0.4816,13.45759 2.3871,13.55165 1.36877,23.51827 -3.68756,36.09045 l -2.20014,5.47049 -10.51374,4.8395 c -5.78255,2.66171 -10.7554,4.8546 -11.05077,4.87305 -0.29537,0.0184 -0.67833,-6.77029 -0.85103,-15.08612 -0.26661,-12.8381 -0.52992,-15.3356 -1.74492,-16.55059 -1.18395,-1.18396 -1.80093,-1.26235 -3.57471,-0.45415 -2.98913,1.36194 -7.17044,8.23135 -7.17044,11.78021 0,2.6155 0.19127,2.84067 2.10274,2.47527 1.15652,-0.22109 2.09531,-0.17059 2.0862,0.11222 -0.009,0.2828 -0.56363,3.54214 -1.2323,7.24298 -1.42107,7.86513 -1.60648,13.03704 -0.46738,13.03704 0.44388,0 1.76861,-1.037 2.94384,-2.30443 l 2.13679,-2.30443 -0.006,4.61745 c -0.007,5.57259 -2.70287,17.27747 -5.02957,21.83817 -0.92886,1.82072 -4.52856,6.34691 -7.99933,10.05821 -7.55369,8.07718 -7.9961,9.66473 -2.46208,8.83485 l 3.84841,-0.5771 -2.93627,5.78244 c -6.97153,13.72916 -16.85785,24.81508 -26.19236,29.37053 -8.03942,3.92342 -18.94095,6.6613 -18.94095,4.75695 z"
       id="path3510"
       transform="scale(0.75)" />
    <path
       style="fill:#0057ff;fill-opacity:1;stroke-width:0.841099"
       d="m 237.4418,257.58662 c 1.61123,-2.89128 4.47306,-8.03225 6.35962,-11.42437 7.66702,-13.78564 15.4848,-32.96615 20.75182,-50.9135 2.96923,-10.11765 6.61852,-13.81062 18.60552,-18.8282 9.5428,-3.99448 12.41184,-4.39143 13.74435,-1.90162 1.15418,2.1566 -0.12955,13.02486 -1.95554,16.55593 -0.7261,1.40411 -5.36945,6.29851 -10.31856,10.87643 -8.73075,8.07593 -9.13153,8.60651 -13.4748,17.83847 -6.36137,13.5216 -12.34687,23.05159 -18.72345,29.8111 -5.50669,5.83738 -14.95529,13.24263 -16.89672,13.24263 -0.5981,0 0.1929,-2.17963 1.90776,-5.25687 z"
       id="path3512"
       transform="scale(0.75)" />
    <path
       style="fill:#004bdb;fill-opacity:1;stroke-width:0.841099"
       d="m 279.24492,219.98237 c 0,-0.44338 1.9871,-3.75521 4.41577,-7.35961 3.92036,-5.81821 5.04923,-6.87159 10.06193,-9.38902 6.92791,-3.47927 8.23198,-3.16089 8.23198,2.00983 0,5.13779 -1.78795,8.3144 -6.10265,10.84247 -5.50052,3.22285 -16.60703,5.82866 -16.60703,3.89633 z"
       id="path3514"
       transform="scale(0.75)" />
    <path
       style="fill:#003aa8;fill-opacity:1;stroke-width:0.841099"
       d="m 165.51752,310.57587 c 1.35726,-2.42868 4.03622,-7.30418 5.95323,-10.83446 3.84379,-7.07851 4.51787,-7.81471 7.89365,-8.62114 2.08,-0.49689 2.31302,-0.91773 2.31302,-4.17728 0,-3.71264 -2.96727,-9.34053 -6.71111,-12.72866 -1.98315,-1.79473 -2.07055,-3.89859 -0.47183,-11.35762 0.87686,-4.09108 1.7385,-5.90805 3.4482,-7.27131 1.72995,-1.37942 2.15683,-2.29475 1.77133,-3.79818 -0.27934,-1.08942 -4.486,-6.19769 -9.34812,-11.35172 l -8.84023,-9.37093 1.81485,-2.40445 c 7.15845,-9.48404 7.43572,-9.72557 9.56399,-8.33107 4.65015,3.04689 5.83645,0.27805 3.19822,-7.46473 -1.36075,-3.9936 -1.35625,-4.03134 0.73002,-6.1176 1.53363,-1.53364 3.86211,-2.43209 8.64238,-3.3347 8.76591,-1.65517 13.10998,-3.843 19.50077,-9.82127 5.00737,-4.68415 5.49397,-4.94385 7.37598,-3.93663 3.41005,1.82501 4.45211,0.67211 5.07006,-5.60936 0.73586,-7.47997 3.09825,-17.62254 5.93884,-25.49757 2.20198,-6.10459 13.69816,-33.74283 14.29964,-34.3781 0.1633,-0.17247 3.8079,-0.66575 8.09912,-1.09618 12.18026,-1.22173 20.09953,-4.2381 33.30018,-12.6837 2.90506,-1.85862 5.51913,-3.14212 5.80903,-2.85221 0.7203,0.7203 -2.03296,6.65227 -5.78293,12.45944 -3.2371,5.01296 -11.74088,12.36966 -21.70947,18.78107 -3.00693,1.93394 -6.02261,4.1887 -6.70151,5.01058 -1.10486,1.33754 -1.03868,1.65278 0.63082,3.00466 2.34402,1.89807 2.33037,2.55392 -0.23755,11.41527 -2.52308,8.70663 -2.64721,10.66056 -0.65283,10.27648 0.90197,-0.1737 3.8422,-4.91874 7.78017,-12.55589 3.48164,-6.75216 6.7985,-12.83771 7.3708,-13.52345 1.34385,-1.61019 12.5356,-6.01246 13.60502,-5.35152 0.44897,0.27748 2.2421,2.86145 3.98474,5.74216 1.74263,2.88071 5.15279,8.04772 7.57813,11.48225 2.42535,3.43452 4.22012,6.55137 3.98839,6.92631 -0.23173,0.37495 -3.07088,2.25579 -6.30921,4.17965 -5.69699,3.38452 -5.99359,3.46305 -9.14781,2.42207 -4.12755,-1.36222 -5.55572,-0.79655 -7.0563,2.79484 -0.66064,1.58115 -2.98948,4.7202 -5.17519,6.97566 l -3.97401,4.10084 -1.55672,-3.78495 c -2.58211,-6.27805 -4.70668,-9.65628 -6.26992,-9.96964 -1.37143,-0.27492 -1.42699,0.28823 -0.74686,7.56989 0.40414,4.32679 0.71973,12.97658 0.70133,19.22174 -0.0311,10.55609 -0.2207,11.88437 -2.69531,18.88258 -1.46402,4.14026 -3.14042,7.98481 -3.72533,8.54345 -1.30949,1.25065 -20.04111,9.8098 -20.48883,9.36209 -0.17751,-0.17752 -0.57079,-6.54037 -0.87395,-14.13967 -0.30316,-7.59931 -0.86553,-14.66853 -1.2497,-15.70939 -0.77975,-2.11262 -3.65262,-2.50319 -5.88897,-0.80061 -5.08104,3.86828 -7.97416,14.04793 -3.99251,14.04793 1.63533,0 1.74435,0.31423 1.24011,3.57467 -0.30405,1.96607 -0.78647,6.508 -1.07203,10.09319 -0.57669,7.24027 0.0775,8.04943 3.7403,4.62604 l 2.02479,-1.89247 -0.54443,4.2055 c -0.98726,7.62624 -3.14989,16.7679 -4.77546,20.18638 -0.87992,1.85041 -4.42238,6.5816 -7.87213,10.51374 -7.37091,8.40161 -7.85236,10.09319 -2.87269,10.09319 h 3.43678 l -3.13716,5.67741 c -7.23719,13.09737 -16.73354,23.48872 -25.51653,27.92137 -5.29709,2.67336 -12.83154,5.09178 -15.86318,5.09178 h -2.01182 z"
       id="path4137"
       transform="scale(0.75)" />
    <path
       style="fill:#00246a;fill-opacity:1;stroke-width:0.841099"
       d="m 158.9558,144.9107 c -12.07171,-4.23866 -28.57588,-15.77211 -35.24915,-24.63281 -4.50068,-5.97597 -8.08093,-12.9751 -9.25062,-18.08434 -1.23392,-5.389748 -1.05594,-21.127857 0.32665,-28.884901 1.58875,-8.913673 5.87745,-17.678397 11.30707,-23.108021 4.52748,-4.527483 6.43206,-5.482013 5.57968,-2.796408 -3.09008,9.735975 -4.61342,27.204276 -3.0337,34.787549 2.2515,10.807998 9.08977,19.835081 17.9862,23.743281 2.39545,1.05232 11.02243,4.06335 19.17106,6.69117 8.14863,2.62781 16.34602,5.77013 18.21641,6.98291 6.7601,4.38333 8.93458,13.04357 5.01333,19.96646 -2.95199,5.21169 -6.13884,6.58919 -16.07889,6.95005 -7.22368,0.26224 -9.33657,0.0183 -13.98804,-1.61494 z"
       id="path4622"
       transform="scale(0.75)" />
    <path
       style="fill:#00308a;fill-opacity:1;stroke-width:0.841099"
       d="m 165.32063,82.217443 c -2.70624,-4.099871 -4.31707,-8.781002 -5.90849,-17.170269 -1.65831,-8.741903 -2.55678,-24.35157 -1.2992,-22.571666 0.49028,0.693907 4.03243,6.749821 7.87145,13.457586 3.83901,6.707766 7.66612,13.33693 8.50467,14.731475 l 1.52464,2.535538 -3.64518,6.085729 c -2.00484,3.347151 -3.94234,6.085729 -4.30555,6.085729 -0.3632,0 -1.59726,-1.419355 -2.74234,-3.154122 z"
       id="path8419"
       transform="scale(0.75)" />
    <ellipse
       style="fill:#ffcc00;fill-opacity:1;stroke-width:0.619318"
       id="path13059"
       cx="366.98166"
       cy="24.028664"
       rx="31.119085"
       ry="4.3584337" />
  </g>
  <path
     style="fill:#0000ff;fill-opacity:1;stroke-width:0.537405"
     d="m 137.44625,236.44234 c -1.99235,-0.39643 -3.84119,-0.85597 -4.10853,-1.0212 -1.00456,-0.62085 0.82989,-5.20123 6.9026,-17.23488 12.52583,-24.82114 33.29893,-56.40204 50.94329,-77.448 12.14094,-14.48154 18.40127,-18.21261 33.32237,-19.85962 l 3.36399,-0.37132 -5.70005,16.8639 c -6.45629,19.10122 -13.57734,39.26278 -15.21093,43.06607 -4.09953,9.54444 -13.26235,17.35735 -24.4128,20.81615 -8.83005,2.73904 -10.09365,3.28088 -12.30041,5.27456 -2.40406,2.17192 -7.07957,8.34513 -14.61855,19.30128 -2.89256,4.20367 -6.20354,8.49618 -7.35774,9.53893 -1.81007,1.63529 -2.44923,1.88897 -4.64966,1.84541 -1.40312,-0.0278 -4.18123,-0.37485 -6.17358,-0.77128 z"
     id="path13304"
     transform="matrix(0.61931818,0,0,0.61931818,28,22)" />
  <path
     style="fill:#0000ff;fill-opacity:1;stroke-width:0.537405"
     d="m 29.927504,236.86107 c 0.512839,-0.81283 3.034322,-4.25893 5.603295,-7.65802 19.405265,-25.67567 59.261968,-57.0279 96.420441,-75.8466 l 8.87634,-4.49538 h 5.34157 c 4.20004,0 5.52687,0.18541 6.20868,0.86762 0.79797,0.79843 0.53474,1.16268 -3.30106,4.56794 -18.48933,16.41401 -53.063799,51.35383 -68.312115,69.03399 -4.743838,5.50039 -8.373822,9.09686 -9.181644,9.09686 -0.215492,0 -8.970137,1.33008 -19.454767,2.95573 -10.484629,1.62564 -19.97876,2.95572 -21.098068,2.95572 H 28.99507 Z"
     id="path13306"
     transform="matrix(0.61931818,0,0,0.61931818,28,22)" />
  <path
     style="fill:#0000ff;fill-opacity:1;stroke-width:0.537405"
     d="m 155.36748,141.58129 c -4.83795,-1.26697 -13.08522,-5.15456 -19.9201,-9.38994 -18.37442,-11.38607 -29.76454,-24.4308 -34.50042,-39.512206 -1.175565,-3.743566 -1.257444,-4.856488 -1.243735,-16.905098 0.01581,-13.89261 0.524385,-18.594499 2.790155,-25.79542 2.72141,-8.649036 7.21957,-15.980744 13.28639,-21.655956 3.58142,-3.350244 5.04229,-4.156008 4.33837,-2.392899 -1.54045,3.858408 -3.67734,17.618754 -4.31882,27.810687 -0.90206,14.332118 3.09639,25.793738 12.12284,34.75038 5.41577,5.373885 8.54977,6.85171 29.93338,14.114982 20.42175,6.93656 23.81589,8.42616 26.92517,11.81675 3.40602,3.71415 4.60136,6.72731 4.60136,11.5988 0,6.59743 -3.26161,12.30124 -8.26505,14.45367 -5.49511,2.36393 -18.76938,2.93422 -25.74954,1.10625 z"
     id="path13308"
     transform="matrix(0.61931818,0,0,0.61931818,28,22)" />
  <path
     style="fill:#0000ff;fill-opacity:1;stroke-width:0.537405"
     d="m 160.75648,68.270995 c -5.42296,-7.551344 -8.88951,-21.796175 -9.55196,-39.251148 -0.27174,-7.16005 -0.21804,-7.940933 0.48042,-6.986259 0.43249,0.591145 5.17162,8.661935 10.53141,17.935088 l 9.74506,16.860279 -2.77457,4.635904 c -3.25643,5.441019 -5.85384,9.203843 -6.35325,9.203843 -0.19536,0 -1.13006,-1.078968 -2.07711,-2.397707 z"
     id="path13310"
     transform="matrix(0.61931818,0,0,0.61931818,28,22)" />
  <path
     style="fill:#0000ff;fill-opacity:1;stroke-width:0.537405"
     d="m 161.33168,68.553348 c -5.36016,-7.25001 -9.06145,-21.786689 -9.58698,-37.652585 l -0.27591,-8.329771 1.56726,2.418321 c 1.99547,3.079056 17.7415,30.238982 18.15336,31.312259 0.38563,1.004958 -7.31773,13.829726 -8.30701,13.829726 -0.21125,0 -0.90907,-0.710078 -1.55072,-1.57795 z"
     id="path13312"
     transform="matrix(0.61931818,0,0,0.61931818,28,22)" />
  <path
     style="fill:#0000ff;fill-opacity:1;stroke-width:0.537405"
     d="m 195.6065,112.288 c -10.74169,-10.80839 -16.50853,-14.474979 -27.44216,-17.447862 -5.52003,-1.500913 -8.01778,-2.672986 -8.01778,-3.762365 0,-0.210719 1.47342,-2.289268 3.27425,-4.618998 6.61203,-8.553944 11.62519,-17.710844 14.97198,-27.34744 2.40732,-6.931528 1.93797,-6.558085 6.5629,-5.221801 4.64329,1.341592 8.30879,1.883342 22.75118,3.362568 17.17484,1.759089 22.35102,2.696806 28.75115,5.208565 10.91822,4.284907 20.54663,12.96947 28.00844,25.26286 3.38695,5.580018 6.38545,12.03469 6.38545,13.745523 0,2.10281 -0.49401,2.24417 -29.5272,8.44932 -12.5453,2.68125 -26.29334,5.70848 -30.5512,6.72717 -4.25786,1.01869 -8.02372,1.85217 -8.36859,1.85217 -0.34487,0 -3.40416,-2.79437 -6.79842,-6.20971 z"
     id="path13314"
     transform="matrix(0.61931818,0,0,0.61931818,28,22)" />
  <path
     style="fill:#0000ff;fill-opacity:1;stroke-width:0.537405"
     d="m 94.420241,229.34428 c -1.629425,-0.1278 -2.693114,-0.49387 -2.884544,-0.99273 -1.47936,-3.85516 54.579783,-62.80152 70.491783,-74.12233 4.17415,-2.96976 11.00985,-5.28164 10.38982,-3.51392 -0.0985,0.2809 -4.55615,6.14533 -9.90583,13.03206 -21.95501,28.26304 -31.29363,42.21519 -38.98042,58.23779 l -3.72058,7.75531 -11.40447,-0.0969 c -6.27246,-0.0533 -12.566052,-0.18797 -13.985759,-0.29931 z"
     id="path13316"
     transform="matrix(0.61931818,0,0,0.61931818,28,22)" />
  <path
     style="fill:#0000ff;fill-opacity:1;stroke-width:0.537405"
     d="m 105.24056,229.22218 c -6.995861,-0.1583 -12.910141,-0.47875 -13.142845,-0.7121 -1.736953,-1.74176 16.235085,-22.23448 42.769965,-48.76871 17.61265,-17.6122 25.79711,-24.84193 30.92163,-27.31452 3.50586,-1.69158 6.1805,-2.48341 6.17956,-1.82946 -3.3e-4,0.22732 -3.06028,4.40353 -6.7999,9.28047 -26.08024,34.01203 -33.71672,45.33798 -41.75741,61.93203 -2.60442,5.37491 -4.09828,7.88705 -4.64515,7.8115 -0.44336,-0.0613 -6.52999,-0.2409 -13.52585,-0.39921 z"
     id="path13318"
     transform="matrix(0.61931818,0,0,0.61931818,28,22)" />
  <path
     style="fill:#0000ff;fill-opacity:1;stroke-width:0.537405"
     d="m 158.97683,337.62443 c 0.8779,-1.55176 3.59169,-6.44886 6.03065,-10.88245 6.23651,-11.33683 6.99386,-12.35316 10.0456,-13.48074 3.96124,-1.46361 4.03342,-1.57408 3.81697,-5.84141 -0.23994,-4.73054 -2.01656,-8.57313 -6.05782,-13.10225 -1.59001,-1.78197 -3.05142,-3.97062 -3.24757,-4.86367 -0.38575,-1.75632 0.86641,-9.50661 2.20254,-13.63269 0.46475,-1.43518 1.74984,-3.51468 2.93304,-4.74614 3.82303,-3.97901 3.21323,-5.13061 -10.59886,-20.01585 l -8.39251,-9.04458 1.2323,-1.70351 c 4.48347,-6.19784 8.78389,-11.10809 9.72853,-11.10809 0.57965,0 1.78345,0.37727 2.67511,0.83837 0.89167,0.46109 2.27019,0.76338 3.06339,0.67175 1.28396,-0.14833 1.46045,-0.42002 1.6087,-2.47647 0.0993,-1.378 -0.40415,-4.24939 -1.24802,-7.11744 l -1.41452,-4.80758 1.11741,-1.56925 c 1.53817,-2.16017 4.64752,-3.52357 11.5893,-5.08174 10.60071,-2.37947 14.73807,-4.50574 22.57099,-11.59971 5.49853,-4.9798 6.06051,-5.24363 8.8186,-4.14007 2.37068,0.94856 3.56213,0.74411 4.36086,-0.74835 0.28633,-0.535 1.01833,-4.42103 1.62669,-8.63563 2.30392,-15.96137 5.85967,-26.78836 18.90931,-57.57743 3.41092,-8.04766 4.50531,-10.13139 5.43082,-10.34029 0.63748,-0.14389 4.30288,-0.63422 8.14532,-1.08962 15.03782,-1.78224 22.20644,-4.41565 37.88703,-13.91787 6.80991,-4.126717 8.06107,-4.647111 8.06107,-3.352843 0,1.031577 -4.85245,10.419873 -6.99572,13.535023 -3.85852,5.60816 -11.77958,12.52671 -23.63635,20.64485 -10.988,7.52332 -11.53889,8.23117 -8.59847,11.04827 2.15625,2.06582 2.09702,3.43974 -0.56992,13.22136 -2.30718,8.4621 -2.56601,11.89176 -0.92097,12.20344 1.26378,0.23944 4.25109,-4.48897 11.64906,-18.43854 3.60977,-6.80653 6.63094,-11.84272 7.61235,-12.68951 1.9942,-1.72064 10.84533,-5.36358 13.33878,-5.48996 1.80808,-0.0916 1.88195,7.5e-4 10.61374,13.27603 4.83615,7.35257 8.79299,13.68601 8.79299,14.07432 0,0.74564 -8.44397,6.19802 -12.0916,7.80769 -2.01779,0.89045 -2.37216,0.89518 -5.77838,0.0771 -4.98585,-1.19737 -6.07403,-0.73565 -8.45634,3.58806 -1.03808,1.88403 -3.77112,5.45551 -6.07343,7.9366 l -4.18602,4.51109 -1.0893,-2.57322 c -3.67219,-8.67468 -6.30105,-12.85548 -8.27302,-13.15697 -1.25824,-0.19237 -1.24756,-0.66265 -0.55153,24.28758 0.54366,19.48843 0.0718,22.70984 -5.17147,35.30853 l -1.61076,3.87036 -5.7377,2.90265 c -7.53638,3.81258 -17.73054,8.17498 -18.14199,7.76353 -0.17929,-0.17929 -0.65745,-6.57068 -1.06257,-14.20308 -1.03337,-19.46839 -1.15218,-20.39112 -2.79155,-21.68066 -1.76281,-1.38662 -3.31927,-1.344 -5.53869,0.15167 -6.45067,4.34711 -10.16192,17.05646 -4.98065,17.05646 1.58537,0 1.57018,-1.59566 0.13084,13.73768 -0.97621,10.3996 -0.2174,11.80745 4.28626,7.95249 l 2.28471,-1.95563 -0.30435,1.82128 c -0.1674,1.0017 -0.68043,4.11869 -1.14007,6.92663 -1.07975,6.59621 -3.22697,15.15139 -4.55796,18.16031 -1.26496,2.85965 -3.74437,6.30907 -9.15772,12.74045 -9.43931,11.21446 -9.66593,12.36417 -2.51462,12.75728 l 2.55469,0.14043 -3.6295,6.33033 c -9.21816,16.07771 -19.6084,27.3185 -30.12316,32.58906 -5.84637,2.93051 -15.32136,5.92368 -18.82211,5.94595 l -1.2486,0.008 z"
     id="path13320"
     transform="matrix(0.61931818,0,0,0.61931818,28,22)" />
  <path
     style="fill:#0000ff;fill-opacity:1;stroke-width:0.537405"
     d="m 242.56957,277.92015 c 0.20718,-0.82547 2.87737,-6.01824 5.93377,-11.53951 12.03446,-21.73982 18.85027,-37.53026 26.37172,-61.09636 1.69731,-5.31796 3.80262,-11.08983 4.67848,-12.82639 2.03394,-4.03266 5.68244,-7.67277 10.25155,-10.22796 5.96258,-3.33447 16.37946,-7.39432 19.75877,-7.70075 2.75347,-0.24967 3.13591,-0.15388 3.9339,0.98541 0.56693,0.8094 0.88392,2.35018 0.88392,4.29642 0,3.74555 -1.35326,11.71229 -2.44047,14.36732 -0.5262,1.28499 -4.44025,5.53945 -11.2101,12.18503 -5.78663,5.68041 -11.22802,11.52208 -12.26423,13.16641 -1.02444,1.62565 -3.45092,6.27042 -5.39217,10.3217 -11.63446,24.28045 -22.6969,37.94641 -39.31567,48.5685 l -1.56616,1.00103 z"
     id="path13322"
     transform="matrix(0.61931818,0,0,0.61931818,28,22)" />
  <path
     style="fill:#0000ff;fill-opacity:1;stroke-width:0.537405"
     d="m 294.20738,229.16806 c -0.6725,-1.08812 6.9684,-12.563 10.47491,-15.73092 2.5001,-2.2587 10.52174,-6.26767 12.5411,-6.26767 2.05544,0 2.7138,1.63183 2.40419,5.95908 -0.43149,6.03059 -3.43819,9.68383 -10.65552,12.94683 -4.59246,2.07628 -14.15493,4.07928 -14.76468,3.09268 z"
     id="path13324"
     transform="matrix(0.61931818,0,0,0.61931818,28,22)" />
</svg>
